# This file uses centimeters as units for non-parametric coordinates.

mtllib D4.mtl
g default
v 6.327736 18.419140 -7.331204
v -6.381774 17.133731 -0.181223
v 4.879871 18.330157 7.320593
v 0.381223 27.821905 0.218590
vt 0.789036 0.392770
vt 0.342235 0.066416
vt 0.950728 0.027367
vt 0.215663 0.536350
vt 0.024958 0.970372
vt 0.603924 0.790217
vn -0.487149 0.338363 -0.805106
vn -0.487149 0.338363 -0.805106
vn -0.487149 0.338363 -0.805106
vn -0.548752 0.318309 0.773014
vn -0.548752 0.318309 0.773014
vn -0.548752 0.318309 0.773014
vn 0.872582 0.480264 0.089144
vn 0.872582 0.480264 0.089144
vn 0.872582 0.480264 0.089144
vn 0.102923 -0.994681 0.004130
vn 0.102923 -0.994681 0.004130
vn 0.102923 -0.994681 0.004130
s off
g d4
usemtl standardSurface4SG
f 1/5/1 2/4/2 4/6/3
f 2/4/4 3/1/5 4/6/6
f 3/1/7 1/2/8 4/3/9
f 2/4/10 1/2/11 3/1/12
