# This file uses centimeters as units for non-parametric coordinates.

mtllib D8.mtl
g default
v 13.204422 13.979193 -2.010173
v 4.170989 13.979193 7.023260
v 13.204422 13.979193 16.056692
v 22.237854 13.979193 7.023260
v 13.204421 23.014265 7.023260
v 13.204421 4.944121 7.023260
vt 0.449984 0.068898
vt 0.336263 0.372694
vt 0.222483 0.676500
vt 0.656250 0.319294
vt 0.542470 0.623100
vt 0.428749 0.926896
vt 0.769935 0.015453
vt 0.976221 0.265794
vt 0.108798 0.980341
vt 0.016295 0.426039
vn -0.577385 0.577281 -0.577385
vn -0.577385 0.577281 -0.577385
vn -0.577385 0.577281 -0.577385
vn -0.577385 0.577280 0.577385
vn -0.577385 0.577280 0.577385
vn -0.577385 0.577280 0.577385
vn 0.577385 0.577280 0.577385
vn 0.577385 0.577280 0.577385
vn 0.577385 0.577280 0.577385
vn 0.577385 0.577280 -0.577385
vn 0.577385 0.577280 -0.577385
vn 0.577385 0.577280 -0.577385
vn -0.577385 -0.577280 0.577385
vn -0.577385 -0.577280 0.577385
vn -0.577385 -0.577280 0.577385
vn -0.577385 -0.577280 -0.577385
vn -0.577385 -0.577280 -0.577385
vn -0.577385 -0.577280 -0.577385
vn 0.577385 -0.577281 -0.577385
vn 0.577385 -0.577281 -0.577385
vn 0.577385 -0.577281 -0.577385
vn 0.577385 -0.577281 0.577385
vn 0.577385 -0.577281 0.577385
vn 0.577385 -0.577281 0.577385
s off
g d8
usemtl standardSurface5SG
f 1/10/1 2/2/2 5/3/3
f 2/2/4 3/5/5 5/3/6
f 3/5/7 4/6/8 5/3/9
f 4/6/10 1/9/11 5/3/12
f 3/5/13 2/2/14 6/4/15
f 2/2/16 1/1/17 6/4/18
f 1/1/19 4/7/20 6/4/21
f 4/7/22 3/8/23 6/4/24
